<svg xmlns="http://www.w3.org/2000/svg" width="143" height="22" viewBox="0 0 143 22" fill="none">
  <path d="M21.4502 11.1154C21.4502 17.0213 16.6953 21.8092 10.8296 21.8092C4.96384 21.8092 0.209229 17.0228 0.209229 11.1154C0.209229 5.20805 4.9642 0.421931 10.8296 0.421931C16.6949 0.421931 21.4502 5.20949 21.4502 11.1154ZM33.1013 11.1154C33.1013 16.6751 30.7236 21.1817 27.7909 21.1817C24.8582 21.1817 22.4806 16.6737 22.4806 11.1154C22.4806 5.55715 24.8582 1.04909 27.7909 1.04909C30.7236 1.04909 33.1013 5.55715 33.1013 11.1154ZM37.8667 11.1154C37.8667 16.0966 37.0304 20.1344 35.999 20.1344C34.9675 20.1344 34.1312 16.0952 34.1312 11.1154C34.1312 6.13563 34.9675 2.0964 35.9993 2.0964C37.0311 2.0964 37.8667 6.13454 37.8667 11.1154ZM67.178 1.34915L67.2076 1.34266V1.11365H61.1676L55.5594 14.2952L49.9512 1.11365H43.4425V1.34266L43.4717 1.34915C44.5741 1.59799 45.1338 1.9691 45.1338 3.30745V18.9757C45.1338 20.314 44.572 20.6851 43.4695 20.934L43.4403 20.9404V21.1702H47.8563V20.9412L47.8271 20.9347C46.7246 20.6858 46.1649 20.3147 46.1649 18.9764V4.21627L53.3693 21.1702H53.7779L61.1922 3.74347V19.3634C61.0977 20.4204 60.543 20.7468 59.5448 20.9722L59.5152 20.979V21.2062H67.2076V20.979L67.178 20.9722C66.1787 20.7468 65.6107 20.4204 65.5162 19.3634L65.5111 3.30745H65.5162C65.5162 1.9691 66.0759 1.59799 67.178 1.34915ZM70.6916 11.7285C70.8175 8.91331 71.8284 6.88144 73.5248 6.84646C74.0481 6.85511 74.487 7.02678 74.8281 7.35713C75.553 8.06075 75.8938 9.53109 75.8411 11.7285H70.6916ZM70.6155 12.5219H79.6314V12.4841C79.6058 10.3314 78.9823 8.65689 77.7799 7.50716C76.7406 6.51358 75.2017 5.96684 73.5854 5.96684H73.5493C72.7105 5.96684 71.6816 6.17025 70.9495 6.53883C70.1161 6.92472 69.3811 7.50175 68.7695 8.2591C67.7849 9.47916 67.1884 11.128 67.0435 12.981C67.0388 13.0366 67.0348 13.0921 67.0308 13.1476C67.0269 13.2032 67.0243 13.2529 67.0218 13.306C67.009 13.5665 67.0047 13.8274 67.0088 14.0882C67.1066 18.285 69.3735 21.639 73.4 21.639C76.9342 21.639 78.9924 19.0554 79.5056 15.5874L79.2463 15.4962C78.3447 17.36 76.7254 18.4895 74.8826 18.3517C72.3668 18.1635 70.4396 15.6126 70.6145 12.5226M89.8251 18.2093C89.5294 18.9107 88.9123 19.2966 88.0854 19.2966C87.2585 19.2966 86.5026 18.729 85.9656 17.6975C85.3886 16.5904 85.0849 15.0252 85.0849 13.1711C85.0849 9.31218 86.2851 6.81616 88.1428 6.81616C88.9206 6.81616 89.533 7.20205 89.8251 7.87537V18.2093ZM95.8059 20.9603C94.7034 20.6995 94.1437 20.3111 94.1437 18.9046V0.190758L87.4456 2.16421V2.40584L87.4868 2.40259C88.4107 2.32794 89.0375 2.45561 89.4014 2.79173C89.6863 3.055 89.8251 3.45892 89.8251 4.0273V6.59292C89.1648 6.17133 88.3793 5.96612 87.4262 5.96612C85.4932 5.96612 83.7264 6.7801 82.4523 8.25838C81.1241 9.79905 80.4219 11.9045 80.4219 14.3464C80.4216 18.7077 82.5684 21.639 85.7636 21.639C87.6328 21.639 89.1367 20.6148 89.8251 18.8873V21.2062H95.8351V20.9661L95.8059 20.9603ZM101.55 2.73583C101.55 1.37403 100.524 0.346917 99.1616 0.346917C97.8059 0.346917 96.7453 1.39639 96.7453 2.73583C96.7453 4.07526 97.807 5.12474 99.1616 5.12474C100.524 5.12474 101.55 4.09762 101.55 2.73583ZM103.131 20.9603C102.029 20.6995 101.469 20.3111 101.469 18.9046H101.465V6.01048L95.4543 7.73617V7.97058L95.4903 7.97383C96.7908 8.0896 97.1467 8.53752 97.1467 10.0573V21.2062H103.162V20.9661L103.131 20.9603ZM118.532 20.9603C117.43 20.6995 116.87 20.3111 116.87 18.9046V6.01048L111.148 7.67918V7.91432L111.182 7.91793C112.245 8.02973 112.552 8.50326 112.552 10.0299V18.1804C112.197 18.8819 111.532 19.2984 110.727 19.3266C109.42 19.3266 108.701 18.4441 108.701 16.8417V6.01084L102.69 7.73653V7.97058L102.726 7.97383C104.027 8.08924 104.383 8.53716 104.383 10.0573V16.9553C104.38 17.4369 104.422 17.9177 104.508 18.3914L104.617 18.8621C105.125 20.6855 106.459 21.639 108.547 21.639C110.317 21.639 111.867 20.5437 112.55 18.83V21.2102H118.561V20.97L118.532 20.9603ZM141.881 21.2062V20.9657L141.852 20.9588C140.655 20.6829 140.19 20.1629 140.19 19.104V10.3332C140.19 7.5984 138.654 5.96612 136.081 5.96612C134.206 5.96612 132.624 7.04986 132.015 8.73804C131.532 6.94924 130.14 5.96612 128.082 5.96612C126.275 5.96612 124.858 6.92003 124.251 8.53139V6.01156L118.24 7.66656V7.90242L118.276 7.90567C119.561 8.01963 119.933 8.48054 119.933 9.96134V21.2062H125.541V20.9661L125.511 20.9588C124.557 20.7345 124.249 20.3255 124.249 19.2761V9.22274C124.501 8.63309 125.01 7.93452 126.016 7.93452C127.265 7.93452 127.898 8.80007 127.898 10.5052V21.2062H133.508V20.9661L133.478 20.9588C132.524 20.7345 132.216 20.3255 132.216 19.2761V10.3321C132.218 9.99766 132.192 9.66366 132.137 9.33382C132.404 8.69296 132.942 7.93452 133.989 7.93452C135.256 7.93452 135.872 8.77518 135.872 10.5052V21.2062H141.881Z" fill="black" />
</svg>